<svg xmlns="http://www.w3.org/2000/svg" viewBox="0 0 287.16 91.93"><defs><style>.cls-1,.cls-2,.cls-3{fill:#fff;}.cls-1{stroke:#be1e2d;stroke-miterlimit:10;}.cls-3{font-size:59.87px;font-family:Kanit-Bold, Kanit;font-weight:700;}.cls-4{letter-spacing:-0.14em;}</style></defs><g id="Layer_4" data-name="Layer 4"><path class="cls-1" d="M243,269.08" transform="translate(-156.16 -209.33)"/><path class="cls-1" d="M241.53,269.08" transform="translate(-156.16 -209.33)"/><path class="cls-2" d="M170.93,209.33v37a14,14,0,0,1-14,14v-37A14,14,0,0,1,170.93,209.33Z" transform="translate(-156.16 -209.33)"/><path class="cls-2" d="M268.65,249.63V278.7H255.71V254.07h-4.26a13,13,0,0,1-13-13h21.66A8.57,8.57,0,0,1,268.65,249.63Z" transform="translate(-156.16 -209.33)"/><path class="cls-2" d="M157.53,221.58a12.25,12.25,0,0,1,12.41-12.25l20.33.27s11.44.05,20.78,10.38,8.34,25.4,8.34,25.4.72,23.24,25,21l24.27.15V278.7H238.43s-21.82-.91-28.75-18.82,1.37-21.69-11.33-34.18c0,0-6.4-4.82-14.48-4.19l-26.34.1Z" transform="translate(-156.16 -209.33)"/><path class="cls-2" d="M156.16,278.69h31.13a31.66,31.66,0,0,0,20.08-8s-6-8.82-6.23-12.17a24.26,24.26,0,0,1-17.49,7.69c-11.12.07-13-.07-13-.07S158.05,265.68,156.16,278.69Z" transform="translate(-156.16 -209.33)"/><path class="cls-2" d="M269.7,209.33H238.57a31.62,31.62,0,0,0-20.08,8s5.95,8.81,6.23,12.17a24.26,24.26,0,0,1,17.49-7.69c11.12-.07,13,.07,13,.07S267.81,222.35,269.7,209.33Z" transform="translate(-156.16 -209.33)"/><text class="cls-3" transform="translate(118.88 69.36)"><tspan class="cls-4">Y</tspan><tspan x="33.35" y="0">ARD </tspan></text></g></svg>