<svg xmlns="http://www.w3.org/2000/svg" xmlns:xlink="http://www.w3.org/1999/xlink" width="152" zoomAndPan="magnify" viewBox="0 0 114 54.75" height="73" preserveAspectRatio="xMidYMid meet" version="1.0"><defs><g/><clipPath id="f9d7ae300e"><path d="M 4 9.355469 L 10 9.355469 L 10 30 L 4 30 Z M 4 9.355469 " clip-rule="nonzero"/></clipPath><clipPath id="03ee063d62"><path d="M 4 9.355469 L 48 9.355469 L 48 37 L 4 37 Z M 4 9.355469 " clip-rule="nonzero"/></clipPath><clipPath id="2792a36fc4"><path d="M 3.882812 28 L 24 28 L 24 37 L 3.882812 37 Z M 3.882812 28 " clip-rule="nonzero"/></clipPath><clipPath id="98b38047e4"><path d="M 28 9.355469 L 49 9.355469 L 49 18 L 28 18 Z M 28 9.355469 " clip-rule="nonzero"/></clipPath></defs><g clip-path="url(#f9d7ae300e)"><path fill="#2a466f" d="M 9.625 9.375 L 9.625 23.761719 C 9.625 24.117188 9.59375 24.472656 9.523438 24.820312 C 9.453125 25.171875 9.347656 25.511719 9.210938 25.84375 C 9.074219 26.171875 8.90625 26.488281 8.710938 26.785156 C 8.511719 27.082031 8.285156 27.355469 8.03125 27.609375 C 7.78125 27.863281 7.503906 28.085938 7.207031 28.285156 C 6.910156 28.484375 6.597656 28.652344 6.265625 28.789062 C 5.9375 28.925781 5.597656 29.027344 5.246094 29.097656 C 4.894531 29.167969 4.542969 29.203125 4.183594 29.203125 L 4.183594 14.820312 C 4.183594 14.460938 4.21875 14.105469 4.289062 13.757812 C 4.359375 13.40625 4.460938 13.066406 4.597656 12.734375 C 4.734375 12.40625 4.902344 12.09375 5.101562 11.792969 C 5.300781 11.496094 5.523438 11.222656 5.777344 10.96875 C 6.03125 10.71875 6.304688 10.492188 6.601562 10.292969 C 6.898438 10.09375 7.214844 9.925781 7.542969 9.789062 C 7.875 9.652344 8.214844 9.550781 8.566406 9.480469 C 8.914062 9.410156 9.269531 9.375 9.625 9.375 Z M 9.625 9.375 " fill-opacity="1" fill-rule="nonzero"/></g><path fill="#2a466f" d="M 47.617188 25.042969 L 47.617188 36.34375 L 42.585938 36.34375 L 42.585938 26.769531 L 40.929688 26.769531 C 40.597656 26.769531 40.269531 26.738281 39.945312 26.671875 C 39.617188 26.609375 39.304688 26.511719 38.996094 26.382812 C 38.691406 26.257812 38.398438 26.101562 38.121094 25.917969 C 37.847656 25.734375 37.589844 25.523438 37.355469 25.289062 C 37.121094 25.054688 36.914062 24.800781 36.726562 24.523438 C 36.542969 24.246094 36.386719 23.957031 36.261719 23.648438 C 36.132812 23.34375 36.039062 23.027344 35.972656 22.703125 C 35.910156 22.375 35.875 22.046875 35.875 21.714844 L 44.296875 21.714844 C 44.738281 21.71875 45.160156 21.800781 45.566406 21.972656 C 45.972656 22.140625 46.332031 22.382812 46.644531 22.695312 C 46.957031 23.003906 47.195312 23.363281 47.363281 23.773438 C 47.53125 24.179688 47.617188 24.601562 47.617188 25.042969 Z M 47.617188 25.042969 " fill-opacity="1" fill-rule="nonzero"/><g clip-path="url(#03ee063d62)"><path fill="#2a466f" d="M 4.417969 14.136719 C 4.417969 13.824219 4.449219 13.511719 4.511719 13.203125 C 4.570312 12.890625 4.664062 12.59375 4.785156 12.300781 C 4.90625 12.011719 5.054688 11.734375 5.234375 11.472656 C 5.410156 11.210938 5.609375 10.96875 5.832031 10.75 C 6.058594 10.527344 6.300781 10.328125 6.566406 10.15625 C 6.828125 9.984375 7.109375 9.839844 7.398438 9.71875 C 7.691406 9.601562 7.992188 9.515625 8.304688 9.457031 C 8.613281 9.398438 8.925781 9.371094 9.242188 9.375 L 17.144531 9.480469 C 17.144531 9.480469 21.59375 9.5 25.222656 13.515625 C 28.855469 17.53125 28.464844 23.390625 28.464844 23.390625 C 28.464844 23.390625 28.746094 32.425781 38.1875 31.554688 L 47.621094 31.613281 L 47.621094 36.34375 L 35.867188 36.34375 C 35.867188 36.34375 27.386719 35.992188 24.691406 29.027344 C 21.996094 22.066406 25.222656 20.59375 20.285156 15.738281 C 20.285156 15.738281 17.796875 13.867188 14.65625 14.109375 L 4.417969 14.148438 Z M 4.417969 14.136719 " fill-opacity="1" fill-rule="nonzero"/></g><g clip-path="url(#2792a36fc4)"><path fill="#2a466f" d="M 3.882812 36.339844 L 15.988281 36.339844 C 17.429688 36.296875 18.824219 36.007812 20.164062 35.472656 C 21.503906 34.9375 22.714844 34.191406 23.792969 33.230469 C 23.792969 33.230469 21.460938 29.800781 21.371094 28.5 C 20.492188 29.441406 19.460938 30.171875 18.277344 30.691406 C 17.097656 31.210938 15.863281 31.476562 14.570312 31.488281 C 10.25 31.515625 9.519531 31.460938 9.519531 31.460938 C 9.519531 31.460938 4.621094 31.28125 3.882812 36.339844 Z M 3.882812 36.339844 " fill-opacity="1" fill-rule="nonzero"/></g><g clip-path="url(#98b38047e4)"><path fill="#2a466f" d="M 48.023438 9.375 L 35.921875 9.375 C 34.480469 9.417969 33.085938 9.707031 31.746094 10.242188 C 30.402344 10.777344 29.195312 11.523438 28.117188 12.484375 C 28.117188 12.484375 30.429688 15.910156 30.539062 17.21875 C 31.417969 16.273438 32.449219 15.542969 33.632812 15.023438 C 34.8125 14.503906 36.046875 14.238281 37.339844 14.226562 C 41.660156 14.199219 42.390625 14.253906 42.390625 14.253906 C 42.390625 14.253906 47.289062 14.4375 48.023438 9.375 Z M 48.023438 9.375 " fill-opacity="1" fill-rule="nonzero"/></g><g fill="#2a466f" fill-opacity="1"><g transform="translate(50.101331, 36.340805)"><g><path d="M 10.34375 -6 L 10.34375 -1.140625 L 12.765625 -0.828125 L 12.765625 0 L 4.34375 0 L 4.34375 -0.828125 L 6.765625 -1.140625 L 6.765625 -5.9375 L 2.125 -14.109375 L 0.40625 -14.40625 L 0.40625 -15.234375 L 8.25 -15.234375 L 8.25 -14.40625 L 6.203125 -14.109375 L 9.671875 -7.71875 L 13.046875 -14.109375 L 11.171875 -14.40625 L 11.171875 -15.234375 L 16.359375 -15.234375 L 16.359375 -14.40625 L 14.75 -14.109375 Z M 10.34375 -6 "/></g></g></g><g fill="#2a466f" fill-opacity="1"><g transform="translate(63.061682, 36.340805)"><g><path d="M 4.859375 -0.828125 L 4.859375 0 L 0.234375 0 L 0.234375 -0.828125 L 1.359375 -1.140625 L 6.78125 -15.359375 L 10.078125 -15.359375 L 15.46875 -1.140625 L 16.625 -0.828125 L 16.625 0 L 9.84375 0 L 9.84375 -0.828125 L 11.609375 -1.140625 L 10.15625 -5.078125 L 4.3125 -5.078125 L 2.90625 -1.140625 Z M 7.28125 -13.0625 L 4.765625 -6.328125 L 9.71875 -6.328125 Z M 7.28125 -13.0625 "/></g></g></g><g fill="#2a466f" fill-opacity="1"><g transform="translate(79.860011, 36.340805)"><g><path d="M 5.9375 -6.453125 L 5.9375 -1.140625 L 7.890625 -0.828125 L 7.890625 0 L 0.546875 0 L 0.546875 -0.828125 L 2.34375 -1.140625 L 2.34375 -14.109375 L 0.390625 -14.40625 L 0.390625 -15.234375 L 7.671875 -15.234375 C 9.921875 -15.234375 11.597656 -14.890625 12.703125 -14.203125 C 13.804688 -13.515625 14.359375 -12.4375 14.359375 -10.96875 C 14.359375 -8.789062 13.335938 -7.390625 11.296875 -6.765625 L 15.359375 -1.140625 L 17 -0.828125 L 17 0 L 12.078125 0 L 7.828125 -6.453125 Z M 10.8125 -10.953125 C 10.8125 -12.085938 10.578125 -12.875 10.109375 -13.3125 C 9.640625 -13.757812 8.78125 -13.984375 7.53125 -13.984375 L 5.9375 -13.984375 L 5.9375 -7.703125 L 7.59375 -7.703125 C 8.757812 -7.703125 9.585938 -7.941406 10.078125 -8.421875 C 10.566406 -8.910156 10.8125 -9.753906 10.8125 -10.953125 Z M 10.8125 -10.953125 "/></g></g></g><g fill="#2a466f" fill-opacity="1"><g transform="translate(96.65834, 36.340805)"><g><path d="M 11.890625 -7.609375 C 11.890625 -9.804688 11.488281 -11.414062 10.6875 -12.4375 C 9.882812 -13.46875 8.578125 -13.984375 6.765625 -13.984375 L 5.9375 -13.984375 L 5.9375 -1.296875 C 6.65625 -1.234375 7.3125 -1.203125 7.90625 -1.203125 C 8.894531 -1.203125 9.671875 -1.410156 10.234375 -1.828125 C 10.804688 -2.253906 11.222656 -2.921875 11.484375 -3.828125 C 11.753906 -4.734375 11.890625 -5.992188 11.890625 -7.609375 Z M 7.640625 -15.234375 C 10.378906 -15.234375 12.398438 -14.613281 13.703125 -13.375 C 15.015625 -12.132812 15.671875 -10.242188 15.671875 -7.703125 C 15.671875 -5.085938 15.046875 -3.140625 13.796875 -1.859375 C 12.546875 -0.585938 10.65625 0.046875 8.125 0.046875 L 3.015625 0 L 0.40625 0 L 0.40625 -0.828125 L 2.359375 -1.140625 L 2.359375 -14.109375 L 0.40625 -14.40625 L 0.40625 -15.234375 Z M 7.640625 -15.234375 "/></g></g></g></svg>